<?xml version="1.0" encoding="utf-8"?>
<!-- Generator: Adobe Illustrator 24.3.0, SVG Export Plug-In . SVG Version: 6.00 Build 0)  -->
<svg version="1.1" id="Layer_1" xmlns="http://www.w3.org/2000/svg" xmlns:xlink="http://www.w3.org/1999/xlink" x="0px" y="0px"
	 viewBox="0 0 1960.8 1671.8" style="enable-background:new 0 0 1960.8 1671.8;" xml:space="preserve">
<style type="text/css">
	.st0{fill:#D9D9D9;}
	.st1{opacity:0.19;}
	.st2{fill:#595591;}
	.st3{opacity:0.8;}
	.st4{fill-rule:evenodd;clip-rule:evenodd;fill:#413C87;}
	.st5{fill:#FFFFFF;}
</style>
<g>
	<circle class="st0" cx="980.4" cy="855.9" r="809"/>
</g>
<g class="st1">
	<path class="st2" d="M1002,1263.4c37.5,0.8,74.1-2.6,109.8-10.1c17.3-3.6,36-7.6,53.5-14.6c90.7-36.2,154.9-156.1,126.8-194.8
		c-3.2-4.4-8.6-9.2-18.5-12.3c-6.4,27.4-22.8,77.6-65.3,107.2c-21.4,15-52.1,26.6-61.1,29.9c-46,17-93.8,25-143.7,23.9
		c-47.7-1-86.3-7.8-115.7-20.4c-30.1-13.3-51.8-30.6-65.1-51.9c-14-21.2-20.8-44.5-20.2-70c0.6-30.6,9.8-55.2,27.6-73.5
		c17-18.3,39.4-32.5,67.1-42.4c27.7-10.6,58.3-19.8,91.7-27.3c33.4-7.6,66.9-15.4,100.3-23.7c33.5-9,64.5-21.1,93-36.2
		c27.8-15.1,50.6-35.3,68.5-60.3c17.2-25.8,26.2-59.7,27.1-101.6c0.8-38.9-8.2-74.6-27.1-107.2c-19.6-33.3-49.8-60.1-90.6-80.4
		c-18.1-9-69-33.7-157.8-33.6c-37.9,0.1-232.1,0.4-288.5,112c-4.7,9.3-31.9,63.2-6.2,104.6c15.4,24.9,42.9,33.8,55.4,36.9
		c-2.6-19.1-8.3-80.6,30.8-123c23.1-25.2,51.9-32.8,102.6-46.3c51.9-13.8,92.5-13.8,105.6-13.5c45.5,0.9,83.1,8.1,112.4,21.4
		c29.4,13.4,51.1,31,65.1,53c13.3,21.2,19.7,45.3,19.1,72.2c-0.6,30.6-9.5,55.2-26.5,73.5c-17.7,18.3-40.5,32.5-68.2,42.3
		c-28.4,9.9-59.4,18.6-92.8,26.1c-33.4,7.6-66.5,15.8-99.2,24.9c-33.5,9-64.1,21.1-91.9,36.2c-28.5,14.4-51.4,34.1-68.5,59.2
		c-17.9,25-27.3,58.1-28.1,99.3c-0.8,38.1,8.6,73.9,28.2,107.2c19.6,32.5,50.1,59.4,91.7,80.5C884,1251.2,936.9,1262,1002,1263.4z"
		/>
</g>
<g class="st3">
	<path class="st4" d="M761.2,1644.1c33.6,9.3,103.7,22.9,220.5,20.5c130.7-2.7,237-24.7,319.1-66c6-3.1,11.9-6.2,17.6-9.4
		c-3,1.1-6,2.1-8.9,3.1c-181.8,22.6-264.2,8.2-307.2,0.7c-1.4-0.2-2.7-0.5-4-0.7c-52.4-9.1-94.9-23.1-124.6-34.5
		c65.8,11.3,165.3,18,278.4-15.1c99.9-29.3,170-77.7,216.9-110.2c37-25.6,69.2-48.1,104.7-87.6c29.7-32.9,49.9-64.9,67.3-98.4
		c0.4-9.6,0.6-19.3,0.4-29.1c-1.7-83.6-20.5-150.8-56.4-201.7c-34.5-50.9-80.3-91-137.6-120.2c-55.9-30.7-117.4-55.3-184.6-73.7
		c-9.7-2.7-19.4-5.4-29.1-8c-19.5,22.4-38.9,46.1-58.3,71.2c-15.7,20.3-31.6,40.7-47.5,60.9c59.6,14.3,114.5,31.3,164.7,50.8
		c55.6,20.1,100.5,48.8,134.7,86.1c35.6,37.2,54.1,87,55.4,149.3c1,51.7-12.5,99-40.7,142.2c-26.7,43.1-70.3,78.2-130.8,105.3
		c-59.1,25.5-136.6,39.3-232.4,41.3c-63.5,1.3-125.3-4.7-185.6-18.1c-10.7-2.4-48.8-11.1-103.1-30.6
		c-128.9-46.4-220-107.4-241.1-121.8c-100.9-68.8-173.4-144.6-222.3-205c27.4,71.2,59.3,126.5,85,165.3
		c86.2,130.4,184.5,201.1,209.2,218.2c12,8.3,66.7,43.4,143.8,79.3C687.6,1619.2,720.5,1632.8,761.2,1644.1z M428.2,496.3
		c2.4,82.5,20.5,149.4,54.2,200.8c36,50.9,81.8,91.8,137.7,122.5c57.3,30.7,119.6,55.2,186.8,73.6c17.7,4.4,35.5,8.8,53.2,13.2
		c14.9-17.9,29.7-36.5,44.6-55.8c20.5-26.4,41.2-52.6,62.1-78.5c-1.1-0.3-2.2-0.5-3.3-0.8c-67.2-15.3-129.3-33-186.4-53.1
		c-55.6-20.1-101.3-48.8-136.9-86c-34.2-37.3-51.9-87.1-53.2-149.4c-1.1-54.7,11.7-103.6,38.4-146.7
		c28.1-44.6,71.7-80.5,130.7-107.6c78.8-36.2,146.7-40,225.8-43.5c110.3-4.9,192.7,11.1,212.3,15.1c99.6,20.2,169.5,53.7,222.3,79.3
		c70.5,34.3,169.8,91.5,274.6,185.1c-24-44.3-61.4-103.9-117.7-165.3c-62.3-68-169.4-162-326.8-218.2
		c-134.5-48-246.4-47.3-281.1-46.3c-57.9,1.7-175.1,6.3-301,74.8c-8,4.4-17.5,9.5-27.9,15.6C777.8,67,906.8,74.7,974.3,84
		c-73,7.9-186.1,32.4-298,111.7c-85.8,60.8-138.1,130.6-171.3,175.6C495.5,384.1,463.3,428.5,428.2,496.3z"/>
</g>
<g class="st3">
	<path class="st5" d="M1702.5,1238.7c-26.5,51-79.4,150.2-186.1,234c-65.5,48.7-145.9,99.6-206.9,119.6
		c-187.7,23.4-269.4,7.3-311.2,0c-52.4-9.1-94.9-23.1-124.6-34.5c65.8,11.3,165.3,18,278.4-15.1c99.9-29.3,170-77.7,216.9-110.2
		c37-25.6,69.2-48.2,104.7-87.6c49.5-55,72.7-107.4,100.4-168.6c41.9-92.2,65-172.3,69.3-240.1c3.6-69.9-7.6-127.4-33.6-172.4
		c-25.3-46.4-61-80.9-107.2-103.3c-55.6-27.1-108-32.1-157.2-15c-48.5,15.6-94.3,45.4-137.4,89.2c-44.5,43.2-88.7,93.3-132.8,150.3
		c-44.1,57-88.9,113.7-134.3,170c-46.8,55.7-96.8,103.8-150.1,144.5c-52.6,39.2-109.5,64.4-170.9,75.5c-62.1,9-131.1-4.9-207.1-41.9
		c-70.5-34.3-126.4-84.6-167.7-150.7c-57.5-92.3-60.4-195.7-61.5-247.6c-3.3-151,46-264.8,70.9-320.7
		c62.2-139.5,144.8-223.4,168.9-246.7c78-75.7,152.2-114,175.3-125.3C754.6,65.6,900.8,73.9,974.3,84c-73,7.9-186.1,32.4-298,111.7
		c-85.8,60.8-138.1,130.6-171.3,175.6c-12.4,16.8-64,88-110,195.3c-32.9,77-60.4,143.4-64.3,234.9c-3,68.5,8.9,126.3,35.6,173.4
		c25.9,45,63.3,79.4,112.2,103.2c55.6,27.1,107.7,32.8,156.2,17.2c49.1-17,95.3-47.5,138.3-91.3c43.7-45.3,87.7-96.4,131.7-153.4
		c44.1-57,89.2-112.7,135.4-167c46.8-55.7,96.5-103.2,149.1-142.3c51.9-41.3,108.2-66.8,168.9-76.4c61.4-11.1,129.3,1.5,203.9,37.9
		c69.2,33.6,124.8,84.6,166.7,152.8c40.6,67.5,60.8,150.7,60.7,249.5C1789.1,1064.7,1731.3,1183.4,1702.5,1238.7z"/>
</g>
</svg>
